<?xml version="1.0" standalone="no"?>
<!DOCTYPE svg PUBLIC "-//W3C//DTD SVG 20010904//EN"
 "http://www.w3.org/TR/2001/REC-SVG-20010904/DTD/svg10.dtd">
<svg version="1.0" xmlns="http://www.w3.org/2000/svg"
 width="357.000000pt" height="357.000000pt" viewBox="0 0 357.000000 357.000000"
 preserveAspectRatio="xMidYMid meet">
<metadata>
Created by potrace 1.11, written by Peter Selinger 2001-2013
</metadata>
<g transform="translate(0.000000,357.000000) scale(0.100000,-0.100000)"
fill="#000000" stroke="none">
<path d="M1685 3454 c-253 -38 -435 -124 -487 -230 -11 -23 -24 -30 -76 -40
-85 -17 -143 -53 -229 -140 -89 -90 -148 -205 -194 -379 -29 -110 -32 -133
-33 -285 -1 -232 29 -456 74 -540 35 -64 37 -75 30 -125 -6 -47 -7 -48 -18
-25 -11 27 -11 20 7 -140 7 -64 7 -63 19 75 7 77 15 160 17 185 3 25 10 92 15
150 10 97 24 179 32 184 1 1 21 13 43 27 60 38 75 42 75 19 0 -28 17 -25 57
10 42 38 53 38 53 0 0 -23 5 -31 23 -34 135 -29 221 -36 239 -18 6 6 13 31 15
56 3 25 9 46 13 46 5 0 33 -10 64 -21 45 -18 56 -26 56 -45 0 -53 31 -72 62
-36 18 20 45 136 54 235 11 114 28 93 22 -29 -3 -60 -3 -115 0 -122 2 -7 15
-17 28 -22 18 -7 24 -17 24 -40 0 -23 5 -31 23 -35 12 -2 56 -11 97 -20 41 -8
127 -29 190 -46 104 -28 130 -31 275 -33 88 -1 166 -5 173 -10 21 -13 242 -15
243 -2 0 6 5 0 10 -14 12 -29 54 -95 82 -127 18 -21 19 -32 12 -160 -5 -76 -8
-163 -8 -193 -1 -30 -4 -57 -8 -60 -5 -3 -9 -38 -11 -78 -2 -39 -6 -72 -9 -72
-4 0 -9 -22 -13 -49 -3 -27 -13 -63 -22 -80 -9 -18 -17 -37 -18 -44 -6 -31
-18 -57 -28 -57 -6 0 -8 -9 -5 -19 3 -12 -1 -22 -9 -25 -8 -3 -14 -10 -14 -16
0 -14 -99 -173 -114 -182 -6 -4 -8 -8 -5 -8 15 0 -92 -114 -157 -167 -66 -54
-164 -123 -173 -123 -5 0 -11 -3 -13 -7 -4 -10 -93 -66 -168 -106 -30 -16 -59
-33 -65 -37 -37 -27 -209 -61 -275 -55 -25 2 -62 5 -82 6 -21 1 -38 5 -38 8 0
4 -11 8 -24 9 -62 5 -231 93 -261 135 -8 12 -15 18 -15 14 0 -8 -127 118 -185
184 -36 40 -125 156 -142 184 -70 114 -143 329 -143 423 0 22 -4 32 -9 26 -11
-10 8 -129 38 -237 46 -167 134 -314 285 -473 161 -171 289 -256 446 -295 150
-38 297 -15 485 76 313 152 516 343 656 617 38 75 47 87 64 81 16 -5 18 -3 8
8 -17 21 36 229 83 331 30 63 47 86 86 114 49 37 60 54 33 54 -25 0 -101 -85
-121 -135 -11 -25 -22 -45 -26 -45 -5 0 -8 28 -8 61 0 61 0 62 51 108 63 57
121 140 143 206 41 126 86 420 86 570 0 235 -53 411 -185 610 -92 139 -220
247 -401 338 -200 101 -313 127 -584 132 -102 2 -198 1 -215 -1z m-254 -939
c0 -76 -3 -140 -5 -143 -3 -2 -16 2 -29 11 l-24 15 18 104 c21 121 30 160 36
155 2 -3 4 -66 4 -142z"/>
<path d="M1147 1940 c-50 -19 -109 -59 -140 -95 -24 -27 -57 -91 -57 -110 0
-25 17 -17 30 14 19 47 105 130 162 156 92 43 214 30 276 -28 30 -28 49 -63
67 -129 l15 -53 -6 55 c-8 67 -23 98 -70 144 -66 64 -182 84 -277 46z"/>
<path d="M1170 1890 c-57 -34 -85 -83 -85 -149 0 -131 128 -211 245 -151 109
56 122 212 23 287 -48 37 -133 43 -183 13z m55 -75 c0 -24 -5 -31 -24 -33 -32
-5 -54 23 -40 50 7 13 19 18 37 16 23 -2 27 -8 27 -33z m135 -180 c0 -20 -40
-45 -72 -45 -36 0 -28 19 20 47 38 22 52 21 52 -2z"/>
<path d="M2084 1847 c-58 -28 -106 -81 -123 -136 -19 -66 -11 -68 18 -6 16 33
41 72 57 87 41 37 123 62 180 54 113 -15 191 -80 254 -210 22 -45 40 -74 41
-66 7 89 -78 213 -184 266 -75 39 -176 43 -243 11z"/>
<path d="M669 1823 c5 -11 18 -26 27 -34 9 -8 23 -27 30 -44 7 -16 13 -23 13
-15 1 27 -45 105 -63 108 -15 3 -16 0 -7 -15z"/>
<path d="M2155 1804 c-45 -23 -66 -45 -86 -89 -23 -51 -23 -89 0 -141 59 -130
237 -135 308 -9 63 112 -20 255 -148 255 -24 0 -57 -7 -74 -16z m40 -78 c0
-40 -27 -56 -54 -32 -25 23 -26 30 -5 51 26 26 59 15 59 -19z m138 -172 c19
-19 -50 -71 -79 -60 -24 9 -15 30 19 47 36 18 51 22 60 13z"/>
<path d="M1450 1248 c0 -53 43 -99 113 -121 67 -21 204 -23 252 -3 36 15 65
60 65 98 0 20 -3 18 -17 -11 -31 -63 -124 -85 -257 -60 -44 8 -125 42 -126 52
0 1 -7 20 -15 42 l-14 40 -1 -37z"/>
<path d="M1494 890 c-28 -11 -59 -29 -69 -40 -17 -19 -16 -22 32 -92 l49 -73
60 -7 c32 -3 92 -8 132 -9 l73 -3 60 60 60 61 -25 30 c-65 77 -264 116 -372
73z m113 -196 c-3 -3 -12 -4 -19 -1 -8 3 -5 6 6 6 11 1 17 -2 13 -5z m89 -1
c-11 -11 -48 -14 -41 -3 3 5 16 10 27 10 12 0 18 -3 14 -7z"/>
<path d="M1482 608 c74 -97 207 -114 288 -38 18 17 31 33 28 35 -3 3 -26 -7
-53 -21 -80 -45 -187 -32 -245 29 -35 37 -47 33 -18 -5z"/>
</g>
</svg>
